# xmcd CD database file
#
# Track frame offsets:
#	150
#	28095
#	55217
#
# Disc length: 1107 seconds
#
# Revision: 0
# Processed by: cddbd v1.5.1PL2 Copyright (c) Steve Scherf et al.
# Submitted via: CDex 1.51
#
DISCID=20045103
DTITLE=Sakura. - Paradaise Calling
DYEAR=1900
DGENRE=JPop
TTITLE0=Paradaise Calling
TTITLE1=Sweet Darling
TTITLE2=Paradaise Calling instrumental
EXTD=
EXTT0=
EXTT1=
EXTT2=
PLAYORDER=
